<mxfile host="drawio-plugin" modified="2023-10-20T14:05:54.414Z" agent="5.0 (Macintosh; Intel Mac OS X 10_15_7) AppleWebKit/537.36 (KHTML, like Gecko) Chrome/111.0.0.0 Safari/537.36" etag="znW4783ff0mYLH1L4ZJQ" version="20.5.3" type="embed"><diagram name="Page-1" id="b1HUwyOnShDGKJ7FnFwD"><mxGraphModel dx="542" dy="978" grid="1" gridSize="10" guides="1" tooltips="1" connect="1" arrows="1" fold="1" page="1" pageScale="1" pageWidth="850" pageHeight="1100" math="0" shadow="0"><root><mxCell id="0"/><mxCell id="1" parent="0"/><mxCell id="YDrvO1anJlEtCm3CYAJg-29" value="j" style="endArrow=classic;html=1;rounded=0;exitX=1.004;exitY=0.839;exitDx=0;exitDy=0;exitPerimeter=0;entryX=0.004;entryY=0.926;entryDx=0;entryDy=0;entryPerimeter=0;" parent="1" source="5" target="7" edge="1"><mxGeometry relative="1" as="geometry"><mxPoint x="370" y="550" as="sourcePoint"/><mxPoint x="430" y="451.81818181818176" as="targetPoint"/><Array as="points"><mxPoint x="380" y="540"/><mxPoint x="380" y="510"/><mxPoint x="380" y="470"/><mxPoint x="400" y="460"/></Array></mxGeometry></mxCell><mxCell id="YDrvO1anJlEtCm3CYAJg-30" value="Each Student is associated with at least one ZoomMeeting" style="edgeLabel;resizable=0;html=1;align=center;verticalAlign=middle;rotation=0;" parent="YDrvO1anJlEtCm3CYAJg-29" connectable="0" vertex="1"><mxGeometry relative="1" as="geometry"><mxPoint x="-100" y="-139" as="offset"/></mxGeometry></mxCell><mxCell id="3" value="" style="endArrow=classic;html=1;rounded=0;entryX=0.673;entryY=0.011;entryDx=0;entryDy=0;entryPerimeter=0;startArrow=none;startFill=0;exitX=0.4;exitY=1.011;exitDx=0;exitDy=0;exitPerimeter=0;" edge="1" parent="1" source="7" target="10"><mxGeometry width="50" height="50" relative="1" as="geometry"><mxPoint x="531.8900000000001" y="472.28" as="sourcePoint"/><mxPoint x="529.1199999999999" y="717.06" as="targetPoint"/></mxGeometry></mxCell><mxCell id="4" value="Each ZoomMeeting is associated with at least one AttendanceAggregate" style="text;html=1;strokeColor=none;fillColor=none;align=center;verticalAlign=middle;whiteSpace=wrap;rounded=0;" vertex="1" parent="1"><mxGeometry x="520" y="580" width="60" height="30" as="geometry"/></mxCell><mxCell id="5" value="&lt;p style=&quot;margin:0px;margin-top:4px;text-align:center;&quot;&gt;&lt;i&gt;Student&lt;/i&gt;&lt;/p&gt;&lt;hr size=&quot;1&quot;&gt;&lt;p style=&quot;margin:0px;margin-left:4px;&quot;&gt;+ studentId: Long&lt;br&gt;+ name: String&lt;/p&gt;&lt;hr size=&quot;1&quot;&gt;&lt;p style=&quot;margin:0px;margin-left:4px;&quot;&gt;+ method1(Type): Type&lt;br&gt;+ method2(Type, Type): Type&lt;/p&gt;" style="verticalAlign=top;align=left;overflow=fill;fontSize=12;fontFamily=Helvetica;html=1;" vertex="1" parent="1"><mxGeometry x="120" y="390" width="240" height="190" as="geometry"/></mxCell><mxCell id="6" value="" style="endArrow=classic;html=1;rounded=0;exitX=0.338;exitY=-0.005;exitDx=0;exitDy=0;exitPerimeter=0;entryX=0.925;entryY=1;entryDx=0;entryDy=0;entryPerimeter=0;" edge="1" parent="1" source="10" target="5"><mxGeometry width="50" height="50" relative="1" as="geometry"><mxPoint x="404.96000000000004" y="715.94" as="sourcePoint"/><mxPoint x="420" y="580" as="targetPoint"/></mxGeometry></mxCell><mxCell id="7" value="&lt;p style=&quot;margin:0px;margin-top:4px;text-align:center;&quot;&gt;&lt;i&gt;ZoomMeeting&lt;/i&gt;&lt;/p&gt;&lt;hr size=&quot;1&quot;&gt;&lt;p style=&quot;margin:0px;margin-left:4px;&quot;&gt;&lt;br&gt;&lt;/p&gt;&lt;hr size=&quot;1&quot;&gt;&lt;p style=&quot;margin: 0px 0px 0px 4px;&quot;&gt;+ zoomMeetingId: Long&lt;br&gt;+ created(): Instant&lt;/p&gt;&lt;p style=&quot;margin: 0px 0px 0px 4px;&quot;&gt;+ started(): Instant&lt;/p&gt;&lt;p style=&quot;margin: 0px 0px 0px 4px;&quot;&gt;+ duration: Long&lt;/p&gt;" style="verticalAlign=top;align=left;overflow=fill;fontSize=12;fontFamily=Helvetica;html=1;" vertex="1" parent="1"><mxGeometry x="440" y="260" width="240" height="190" as="geometry"/></mxCell><mxCell id="10" value="&lt;p style=&quot;margin:0px;margin-top:4px;text-align:center;&quot;&gt;&lt;i&gt;&lt;b&gt;AttendanceAggregate&lt;/b&gt;&lt;/i&gt;&lt;br&gt;&lt;/p&gt;&lt;p style=&quot;margin:0px;margin-left:4px;&quot;&gt;+ field1: Type&lt;br&gt;+ field2: Type&lt;/p&gt;&lt;hr size=&quot;1&quot;&gt;&lt;p style=&quot;margin:0px;margin-left:4px;&quot;&gt;+ sum(): Int&lt;br&gt;+ dailyAverage(): Int&lt;/p&gt;&lt;p style=&quot;margin:0px;margin-left:4px;&quot;&gt;&lt;br&gt;&lt;/p&gt;" style="verticalAlign=top;align=left;overflow=fill;fontSize=12;fontFamily=Helvetica;html=1;" vertex="1" parent="1"><mxGeometry x="280" y="720" width="370" height="190" as="geometry"/></mxCell></root></mxGraphModel></diagram></mxfile>